<svg width="230" height="228" viewBox="0 0 230 228" fill="none" xmlns="http://www.w3.org/2000/svg">
<g clip-path="url(#clip0_596_14)">
<path d="M228.9 107.3C227.3 95.3 220.3 55.5 193.4 31.9C193.3 31.8 193.3 31.8 193.2 31.7C191.6 30.1 163.9 1.79999 116.4 0.799993C116.3 0.799993 116.3 0.799993 116.2 0.799993C113 0.499993 6.70005 -8.30001 0.500051 99.1C0.400051 101 2.00005 102.6 4.00005 102.4L24.0001 100.1C25.4001 99.9 26.5001 98.9 26.7001 97.5C28.0001 89.2 33 61.3 42.3 52.8C53.3 42.8 102.3 5.79999 170.2 47.7C170.3 47.7 170.3 47.8 170.4 47.8C172 48.9 193.6 64.6 200.3 86.7C204.1 99.3 205.6 105.3 206.1 108.2C206.4 109.7 207.6 110.7 209.1 110.7H225.8" stroke="#FFCA7B" stroke-miterlimit="10"/>
<path d="M201.3 116.8C201.3 116.8 191.3 105.8 175.3 116.8C159.3 127.8 143.3 156.8 145.3 211.8C145.3 211.8 146.3 226.8 164.3 220.8C164.3 220.8 155.3 142.8 201.3 116.8Z" stroke="#FFCA7B" stroke-miterlimit="10"/>
<path d="M201.3 116.8C210.3 116.8 212.3 123.8 212.3 123.8C212.3 123.8 169.3 143.8 178.3 223.8C178.3 223.8 171.3 226.8 164.3 220.8" stroke="#FFCA7B" stroke-miterlimit="10"/>
<path d="M216.8 147.7C213.6 170.7 206 204.9 191.3 223.7C187.2 229 180.3 227.7 178.3 223.7" stroke="#FFCA7B" stroke-miterlimit="10"/>
<path d="M212.3 123.8C213.4 124.2 214.3 125.1 214.9 126.2" stroke="#FFCA7B" stroke-miterlimit="10"/>
<path d="M214.4 110.8C214.4 110.8 220.2 146.2 195 175C194.6 175.5 194.3 176.2 194.2 176.8L193.5 183.5C193.4 184 194 184.3 194.3 183.9C226.2 155.8 221.3 110.8 221.3 110.8" stroke="#FFCA7B" stroke-miterlimit="10"/>
<path d="M202.3 164.8C202.3 165.4 202.3 157.8 196.3 161.8C189.8 166.1 188.3 177.8 188.3 177.8C188.3 177.8 186.3 186.8 189.3 191.8C192.3 196.8 197.3 190.8 197.3 190.8C197.3 190.8 203.2 186.5 204.2 174.7" stroke="#FFCA7B" stroke-miterlimit="10"/>
<path d="M80.3 203.8C80.3 203.8 122.3 226.8 94.3 152.8C86.6 132.4 70.3 115.8 70.3 115.8C70.3 115.8 30.3 83.8 38.3 140.8C46.3 197.8 91.3 207.8 91.3 207.8L73 214.1C71.2 214.6 69.3 214.3 67.7 213.4C17.9 185.5 22.4 134.2 24.6 120.3C25 117.8 26.3 115.6 28.2 114C31.9 111 38.7 106.7 47.2 106.7" stroke="#FFCA7B" stroke-miterlimit="10"/>
<path d="M75.9 187.5C82 189.9 89.8 190.3 90.8 182.3C90.8 177.3 89.8 171.3 88.8 166.3C87.8 163.3 86.8 160.3 85.8 157.3C80.8 146.3 74.8 133.3 62.8 129.3C58.8 127.3 52.8 126.3 50.8 131.3C44.8 147.3 54.8 164.1 63.3 177.8C63.3 177.8 67.5 184.2 75.9 187.5Z" stroke="#FFCA7B" stroke-miterlimit="10"/>
<path d="M70.4998 214.3C70.4998 214.3 56.2998 215.8 49.2998 212.8C42.7998 210 13.7998 179.8 15.2998 142.8C16.2998 117.8 25.2998 118.8 25.2998 118.8" stroke="#FFCA7B" stroke-miterlimit="10"/>
<path d="M15.6999 142.6C10.5999 129.3 8.09987 116 9.39987 101.8" stroke="#FFCA7B" stroke-miterlimit="10"/>
<path d="M16.6 100.6C15.2 109.7 16 119.4 18 128.4" stroke="#FFCA7B" stroke-miterlimit="10"/>
</g>
<defs>
<clipPath id="clip0_596_14">
<rect width="229.4" height="227.8" fill="white"/>
</clipPath>
</defs>
</svg>
