<svg width="68" height="55" viewBox="0 0 68 55" fill="none" xmlns="http://www.w3.org/2000/svg">
<path d="M22.5 38.5L25.4 1.5C25.4 0.9 25.9 0.5 26.5 0.5H66.4C67 0.5 67.5 1 67.5 1.6L66.9 14.1L65.6 43.5L63.6 40.5L64.6 14.6C64.6 14 64.1 13.5 63.5 13.5H27.5C26.9 13.5 26.5 13.9 26.4 14.5L24.5 42.5L23.8 40.8C23.6 40.6 22.5 38.8 22.5 38.5Z" stroke="#FFCA7B" stroke-miterlimit="10"/>
<path d="M12.5 52.5C19.1274 52.5 24.5 48.6944 24.5 44C24.5 39.3056 19.1274 35.5 12.5 35.5C5.87258 35.5 0.5 39.3056 0.5 44C0.5 48.6944 5.87258 52.5 12.5 52.5Z" stroke="#FFCA7B" stroke-miterlimit="10"/>
<path d="M53.5 54.3C60.1274 54.3 65.5 50.4945 65.5 45.8C65.5 41.1056 60.1274 37.3 53.5 37.3C46.8726 37.3 41.5 41.1056 41.5 45.8C41.5 50.4945 46.8726 54.3 53.5 54.3Z" stroke="#FFCA7B" stroke-miterlimit="10"/>
</svg>
