<svg width="286" height="306" viewBox="0 0 286 306" fill="none" xmlns="http://www.w3.org/2000/svg">
<path d="M90.5213 157.601C90.5213 157.601 84.4624 152.659 86.3758 101.652C86.3758 101.652 116.351 158.398 126.396 175.613C136.282 192.987 136.282 191.393 136.282 191.393C136.282 191.393 135.485 157.919 127.194 143.733C118.902 129.547 98.3341 64.6718 122.41 1.86914C122.41 1.86914 138.674 86.0311 155.415 119.186C172.157 152.341 166.895 203.507 166.895 203.507C166.895 203.507 164.185 154.094 231.789 108.028C231.789 108.028 185.072 158.557 184.753 214.346C184.753 214.346 206.597 189.958 235.137 187.727C263.678 185.495 285.362 149.95 285.362 149.95C285.362 149.95 286.16 188.683 234.819 211.158C231.63 212.593 228.441 213.549 224.933 214.187C216.961 215.781 200.219 220.085 199.262 228.533C199.262 228.533 189.855 236.662 178.535 232.199C167.214 227.736 173.911 241.922 151.27 228.054C151.27 228.054 149.675 224.867 138.514 231.561C127.512 238.256 116.192 230.445 116.192 230.445C116.192 230.445 111.409 227.417 105.031 230.764C98.653 234.112 91.9563 218.331 91.9563 218.331L85.1002 196.175L80.3169 193.146C80.3169 193.146 49.863 184.22 38.383 173.381C26.903 162.542 2.98633 161.426 2.98633 161.426C2.98633 161.426 32.8024 151.065 71.2286 170.034C72.3447 170.512 73.4608 171.15 74.5769 171.787C75.5336 172.265 76.6497 172.903 77.6063 173.381C91.3186 181.192 105.828 192.668 120.497 209.724C120.497 209.724 91.7969 137.038 40.2963 119.026C40.2963 119.026 63.8941 144.849 68.1991 151.862C74.8958 162.861 75.0552 172.425 75.0552 172.425" stroke="#FFCA7B" stroke-miterlimit="10"/>
<path d="M212.177 217.375C212.177 217.375 259.692 220.403 212.177 237.459C164.663 254.514 74.8956 232.518 74.8956 232.518C74.8956 232.518 62.4589 228.692 62.9373 224.069C63.2562 220.881 69.9528 217.375 90.9995 214.346" stroke="#FFCA7B" stroke-miterlimit="10"/>
<path d="M157.169 123.171C157.169 123.171 171.678 70.8884 212.496 39.6465C212.496 39.6465 171.041 113.926 186.347 150.269" stroke="#FFCA7B" stroke-miterlimit="10"/>
<path d="M219.671 190.755C219.671 190.755 254.589 135.923 257.141 110.419C257.141 110.419 238.805 142.777 224.614 151.065C210.423 159.354 200.378 157.441 193.044 171.468" stroke="#FFCA7B" stroke-miterlimit="10"/>
<path d="M128.947 147.24C128.947 147.24 117.946 141.023 115.873 128.75C115.873 128.59 115.713 128.59 115.713 128.75C115.554 132.416 115.076 149.631 122.888 169.237" stroke="#FFCA7B" stroke-miterlimit="10"/>
<path d="M63.5752 224.867L67.083 279.381C67.8802 292.611 78.8819 303.131 92.1158 303.29L206.119 305.203C219.99 305.362 231.47 294.364 231.63 280.496L232.586 224.229" stroke="#FFCA7B" stroke-miterlimit="10"/>
</svg>
