<svg width="429" height="478" viewBox="0 0 429 478" fill="none" xmlns="http://www.w3.org/2000/svg">
<g clip-path="url(#clip0_596_13)">
<path d="M165.032 310.183C165.032 310.183 182.795 211.686 127.027 157.885C114.634 145.883 104.926 135.537 97.2842 126.432C70.433 94.3585 54.7354 40.5576 54.7354 40.5576" stroke="#FFCA7B" stroke-miterlimit="10"/>
<path d="M143.551 75.1143C143.551 75.1143 110.503 83.3913 98.1104 126.846" stroke="#FFCA7B" stroke-miterlimit="10"/>
<path d="M24.7856 136.157C24.7856 136.157 35.113 144.435 61.9643 140.296C88.8155 136.157 112.155 142.779 112.155 142.779" stroke="#FFCA7B" stroke-miterlimit="10"/>
<path d="M86.75 293.422C86.75 293.422 84.6846 301.699 113.601 305.837C142.518 309.976 295.363 320.322 313.953 299.629C327.378 284.731 262.729 274.177 225.344 269.418C207.787 267.142 190.231 266.728 172.674 267.97C139.833 270.246 89.4352 276.66 86.75 293.422Z" stroke="#FFCA7B" stroke-miterlimit="10"/>
<path d="M315.605 297.146L289.167 461.032C183.828 500.348 130.125 454.824 130.125 454.824L86.75 293.422" stroke="#FFCA7B" stroke-miterlimit="10"/>
<path d="M164.206 233.206C174.533 198.442 207.581 174.853 207.581 174.853C207.581 174.853 232.366 145.883 228.235 131.398" stroke="#FFCA7B" stroke-miterlimit="10"/>
<path d="M93.9795 222.446C93.9795 222.446 147.062 232.171 167.097 256.382" stroke="#FFCA7B" stroke-miterlimit="10"/>
<path d="M223.278 312.045C223.278 312.045 226.17 199.684 275.741 172.784C325.313 145.883 345.968 73.459 345.968 73.459" stroke="#FFCA7B" stroke-miterlimit="10"/>
<path d="M286.069 58.9741C286.069 58.9741 304.658 75.5282 306.724 90.0131C308.789 104.498 324.9 124.156 324.9 124.156" stroke="#FFCA7B" stroke-miterlimit="10"/>
<path d="M286.069 166.576C327.378 154.16 362.492 181.06 362.492 181.06C362.492 181.06 370.753 187.268 403.801 176.922" stroke="#FFCA7B" stroke-miterlimit="10"/>
<path d="M306.724 228.654C306.724 228.654 267.893 201.753 238.77 224.515" stroke="#FFCA7B" stroke-miterlimit="10"/>
<path d="M166.271 48.6277C166.271 48.6277 174.533 83.8052 151.813 94.1515C129.092 104.498 111.949 98.29 111.949 98.29C111.949 98.29 98.1103 77.5974 112.569 67.2511C127.027 56.9047 158.009 65.1818 166.271 48.6277Z" stroke="#FFCA7B" stroke-miterlimit="10"/>
<path d="M1.03288 118.983C1.03288 118.983 -1.0326 156.229 23.7531 160.368C48.5389 164.506 68.1609 159.954 71.8788 139.468C75.5967 118.983 56.8008 121.052 1.03288 118.983Z" stroke="#FFCA7B" stroke-miterlimit="10"/>
<path d="M127.44 231.964C92.7399 282.868 65.0625 207.961 65.0625 207.961C65.0625 207.961 89.8482 207.961 106.372 203.823C122.896 199.684 127.44 231.964 127.44 231.964Z" stroke="#FFCA7B" stroke-miterlimit="10"/>
<path d="M264.175 215.41C264.175 215.41 317.258 174.853 329.65 249.346C329.444 249.346 279.253 255.968 264.175 215.41Z" stroke="#FFCA7B" stroke-miterlimit="10"/>
<path d="M305.071 85.6674C278.426 90.8406 263.762 70.1479 264.381 59.1808C265.414 42.4198 273.469 24.8311 273.469 24.8311C273.469 24.8311 306.723 26.2795 302.593 79.4596" stroke="#FFCA7B" stroke-miterlimit="10"/>
<path d="M362.492 34.1428C362.492 34.1428 321.802 41.3852 335.021 100.98C335.021 100.98 395.539 90.0129 362.492 34.1428Z" stroke="#FFCA7B" stroke-miterlimit="10"/>
<path d="M56.8007 1.03466C56.8007 1.03466 46.4733 19.658 36.1459 32.0736C25.8185 44.4892 25.8185 56.9048 36.1459 67.2511C46.4733 77.5974 70.0198 83.1845 70.0198 83.1845C70.0198 83.1845 93.9794 48.6277 73.3246 23.7966C52.6698 -1.0346 56.8007 1.03466 56.8007 1.03466Z" stroke="#FFCA7B" stroke-miterlimit="10"/>
<path d="M427.761 172.99C427.761 172.99 402.975 139.882 355.882 178.371C355.882 178.577 392.854 227.826 427.761 172.99Z" stroke="#FFCA7B" stroke-miterlimit="10"/>
<path d="M204.276 178.577C204.276 178.577 264.795 167.61 231.747 111.74C231.747 111.74 191.264 119.19 204.276 178.577Z" stroke="#FFCA7B" stroke-miterlimit="10"/>
</g>
<defs>
<clipPath id="clip0_596_13">
<rect width="429" height="478" fill="white"/>
</clipPath>
</defs>
</svg>
